<?xml version="1.0" encoding="UTF-8" standalone="no"?>
<!DOCTYPE svg PUBLIC "-//W3C//DTD SVG 1.1//EN"
 "http://www.w3.org/Graphics/SVG/1.1/DTD/svg11.dtd">
<!-- Generated by graphviz version 9.0.0 (0)
 -->
<!-- Title: kilo Pages: 1 -->
<svg width="728pt" height="741pt"
 viewBox="0.00 0.00 727.99 741.14" xmlns="http://www.w3.org/2000/svg" xmlns:xlink="http://www.w3.org/1999/xlink">
<g id="graph0" class="graph" transform="scale(1 1) rotate(0) translate(4 737.14)">
<title>kilo</title>
<polygon fill="white" stroke="none" points="-4,4 -4,-737.14 723.99,-737.14 723.99,4 -4,4"/>
<text text-anchor="middle" x="359.99" y="-715.84" font-family="Times,serif" font-size="14.00">10.47.0.0/16</text>
<!-- k8s&#45;1 -->
<g id="node1" class="node">
<title>k8s&#45;1</title>
<ellipse fill="none" stroke="black" cx="269.44" cy="-221.51" rx="112.08" ry="75.66"/>
<text text-anchor="middle" x="269.44" y="-257.71" font-family="Times,serif" font-size="14.00">location:hz&#45;europe&#45;andrey</text>
<text text-anchor="middle" x="269.44" y="-241.21" font-family="Times,serif" font-size="14.00">k8s&#45;1</text>
<text text-anchor="middle" x="269.44" y="-224.71" font-family="Times,serif" font-size="14.00">10.45.5.0/24</text>
<text text-anchor="middle" x="269.44" y="-208.21" font-family="Times,serif" font-size="14.00">10.10.0.3</text>
<text text-anchor="middle" x="269.44" y="-191.71" font-family="Times,serif" font-size="14.00">10.47.0.1</text>
<text text-anchor="middle" x="269.44" y="-175.21" font-family="Times,serif" font-size="14.00">135.181.35.17:7070</text>
</g>
<!-- k8s&#45;2 -->
<g id="node2" class="node">
<title>k8s&#45;2</title>
<ellipse fill="none" stroke="black" cx="112.08" cy="-52.33" rx="112.08" ry="52.33"/>
<text text-anchor="middle" x="112.08" y="-72.03" font-family="Times,serif" font-size="14.00">location:hz&#45;europe&#45;andrey</text>
<text text-anchor="middle" x="112.08" y="-55.53" font-family="Times,serif" font-size="14.00">k8s&#45;2</text>
<text text-anchor="middle" x="112.08" y="-39.03" font-family="Times,serif" font-size="14.00">10.45.6.0/24</text>
<text text-anchor="middle" x="112.08" y="-22.53" font-family="Times,serif" font-size="14.00">10.10.0.2</text>
</g>
<!-- k8s&#45;3 -->
<g id="node3" class="node">
<title>k8s&#45;3</title>
<ellipse fill="none" stroke="black" cx="426.81" cy="-52.33" rx="112.08" ry="52.33"/>
<text text-anchor="middle" x="426.81" y="-72.03" font-family="Times,serif" font-size="14.00">location:hz&#45;europe&#45;andrey</text>
<text text-anchor="middle" x="426.81" y="-55.53" font-family="Times,serif" font-size="14.00">k8s&#45;3</text>
<text text-anchor="middle" x="426.81" y="-39.03" font-family="Times,serif" font-size="14.00">10.45.7.0/24</text>
<text text-anchor="middle" x="426.81" y="-22.53" font-family="Times,serif" font-size="14.00">10.10.0.4</text>
</g>
<!-- jonapot -->
<g id="node4" class="node">
<title>jonapot</title>
<ellipse fill="none" stroke="black" cx="475.18" cy="-427.25" rx="98.29" ry="75.66"/>
<text text-anchor="middle" x="475.18" y="-463.45" font-family="Times,serif" font-size="14.00">location:oracle&#45;denis</text>
<text text-anchor="middle" x="475.18" y="-446.95" font-family="Times,serif" font-size="14.00">jonapot</text>
<text text-anchor="middle" x="475.18" y="-430.45" font-family="Times,serif" font-size="14.00">10.45.1.0/24</text>
<text text-anchor="middle" x="475.18" y="-413.95" font-family="Times,serif" font-size="14.00">10.98.61.43</text>
<text text-anchor="middle" x="475.18" y="-397.45" font-family="Times,serif" font-size="14.00">10.47.0.3</text>
<text text-anchor="middle" x="475.18" y="-380.95" font-family="Times,serif" font-size="14.00">158.101.197.223:7070</text>
</g>
<!-- kesaram -->
<g id="node5" class="node">
<title>kesaram</title>
<ellipse fill="none" stroke="black" cx="628.59" cy="-291.25" rx="91.39" ry="52.33"/>
<text text-anchor="middle" x="628.59" y="-310.95" font-family="Times,serif" font-size="14.00">location:oracle&#45;denis</text>
<text text-anchor="middle" x="628.59" y="-294.45" font-family="Times,serif" font-size="14.00">kesaram</text>
<text text-anchor="middle" x="628.59" y="-277.95" font-family="Times,serif" font-size="14.00">10.45.0.0/24</text>
<text text-anchor="middle" x="628.59" y="-261.45" font-family="Times,serif" font-size="14.00">10.98.39.235</text>
</g>
<!-- nagi -->
<g id="node6" class="node">
<title>nagi</title>
<ellipse fill="none" stroke="black" cx="628.59" cy="-563.25" rx="91.39" ry="52.33"/>
<text text-anchor="middle" x="628.59" y="-582.95" font-family="Times,serif" font-size="14.00">location:oracle&#45;denis</text>
<text text-anchor="middle" x="628.59" y="-566.45" font-family="Times,serif" font-size="14.00">nagi</text>
<text text-anchor="middle" x="628.59" y="-549.95" font-family="Times,serif" font-size="14.00">10.45.4.0/24</text>
<text text-anchor="middle" x="628.59" y="-533.45" font-family="Times,serif" font-size="14.00">10.98.233.244</text>
</g>
<!-- k8s&#45;usa&#45;1 -->
<g id="node7" class="node">
<title>k8s&#45;usa&#45;1</title>
<ellipse fill="none" stroke="black" cx="269.44" cy="-632.98" rx="98.82" ry="75.66"/>
<text text-anchor="middle" x="269.44" y="-669.18" font-family="Times,serif" font-size="14.00">location:hz&#45;usa&#45;andrey</text>
<text text-anchor="middle" x="269.44" y="-652.68" font-family="Times,serif" font-size="14.00">k8s&#45;usa&#45;1</text>
<text text-anchor="middle" x="269.44" y="-636.18" font-family="Times,serif" font-size="14.00">10.45.8.0/24</text>
<text text-anchor="middle" x="269.44" y="-619.68" font-family="Times,serif" font-size="14.00">10.45.8.0</text>
<text text-anchor="middle" x="269.44" y="-603.18" font-family="Times,serif" font-size="14.00">10.47.0.2</text>
<text text-anchor="middle" x="269.44" y="-586.68" font-family="Times,serif" font-size="14.00">5.161.98.176:7070</text>
</g>
<!-- xpand -->
<g id="node8" class="node">
<title>xpand</title>
<ellipse fill="none" stroke="black" cx="63.71" cy="-427.25" rx="34.65" ry="28.64"/>
<text text-anchor="middle" x="63.71" y="-430.2" font-family="Times,serif" font-size="14.00">xpand</text>
</g>
<!-- k8s&#45;1&#45;&gt;k8s&#45;2 -->
<g id="edge1" class="edge">
<title>k8s&#45;1&#45;&gt;k8s&#45;2</title>
<path fill="none" stroke="black" d="M202.07,-149.08C189.55,-135.62 176.65,-121.75 164.66,-108.85"/>
<polygon fill="black" stroke="black" points="199.1,-151.02 208.47,-155.96 204.22,-146.25 199.1,-151.02"/>
<polygon fill="black" stroke="black" points="167.32,-106.58 157.95,-101.65 162.2,-111.35 167.32,-106.58"/>
</g>
<!-- k8s&#45;1&#45;&gt;k8s&#45;3 -->
<g id="edge2" class="edge">
<title>k8s&#45;1&#45;&gt;k8s&#45;3</title>
<path fill="none" stroke="black" d="M336.82,-149.08C349.33,-135.62 362.24,-121.75 374.23,-108.85"/>
<polygon fill="black" stroke="black" points="334.66,-146.25 330.42,-155.96 339.79,-151.02 334.66,-146.25"/>
<polygon fill="black" stroke="black" points="376.69,-111.35 380.93,-101.65 371.56,-106.58 376.69,-111.35"/>
</g>
<!-- k8s&#45;1&#45;&gt;jonapot -->
<g id="edge6" class="edge">
<title>k8s&#45;1&#45;&gt;jonapot</title>
<path fill="none" stroke="black" d="M340.12,-292.19C361.79,-313.85 385.57,-337.64 407.07,-359.13"/>
<polygon fill="black" stroke="black" points="342.9,-290.02 333.36,-285.43 337.96,-294.97 342.9,-290.02"/>
<polygon fill="black" stroke="black" points="404.57,-361.58 414.11,-366.18 409.52,-356.63 404.57,-361.58"/>
</g>
<!-- k8s&#45;1&#45;&gt;k8s&#45;usa&#45;1 -->
<g id="edge5" class="edge">
<title>k8s&#45;1&#45;&gt;k8s&#45;usa&#45;1</title>
<path fill="none" stroke="black" d="M269.44,-308.56C269.44,-378.36 269.44,-475.87 269.44,-545.73"/>
<polygon fill="black" stroke="black" points="272.94,-308.97 269.44,-298.97 265.94,-308.97 272.94,-308.97"/>
<polygon fill="black" stroke="black" points="265.94,-545.62 269.44,-555.62 272.94,-545.62 265.94,-545.62"/>
</g>
<!-- k8s&#45;1&#45;&gt;xpand -->
<g id="edge8" class="edge">
<title>k8s&#45;1&#45;&gt;xpand</title>
<path fill="none" stroke="black" stroke-dasharray="5,2" d="M198.82,-292.13C163.13,-327.82 121.67,-369.28 94.19,-396.76"/>
<polygon fill="black" stroke="black" points="200.93,-294.97 205.53,-285.43 195.98,-290.02 200.93,-294.97"/>
<polygon fill="black" stroke="black" points="91.8,-394.2 87.2,-403.75 96.75,-399.15 91.8,-394.2"/>
</g>
<!-- jonapot&#45;&gt;kesaram -->
<g id="edge3" class="edge">
<title>jonapot&#45;&gt;kesaram</title>
<path fill="none" stroke="black" d="M548.14,-362.57C555.64,-355.92 563.2,-349.22 570.51,-342.74"/>
<polygon fill="black" stroke="black" points="546.09,-359.71 540.93,-368.96 550.73,-364.95 546.09,-359.71"/>
<polygon fill="black" stroke="black" points="572.68,-345.49 577.84,-336.24 568.03,-340.26 572.68,-345.49"/>
</g>
<!-- jonapot&#45;&gt;nagi -->
<g id="edge4" class="edge">
<title>jonapot&#45;&gt;nagi</title>
<path fill="none" stroke="black" d="M548.14,-491.92C555.64,-498.58 563.2,-505.27 570.51,-511.76"/>
<polygon fill="black" stroke="black" points="550.73,-489.55 540.93,-485.53 546.09,-494.79 550.73,-489.55"/>
<polygon fill="black" stroke="black" points="568.03,-514.24 577.84,-518.25 572.68,-509 568.03,-514.24"/>
</g>
<!-- jonapot&#45;&gt;xpand -->
<g id="edge10" class="edge">
<title>jonapot&#45;&gt;xpand</title>
<path fill="none" stroke="black" stroke-dasharray="5,2" d="M365.14,-427.25C281.79,-427.25 171.47,-427.25 110.05,-427.25"/>
<polygon fill="black" stroke="black" points="365.11,-430.75 375.11,-427.25 365.11,-423.75 365.11,-430.75"/>
<polygon fill="black" stroke="black" points="110.32,-423.75 100.32,-427.25 110.32,-430.75 110.32,-423.75"/>
</g>
<!-- k8s&#45;usa&#45;1&#45;&gt;jonapot -->
<g id="edge7" class="edge">
<title>k8s&#45;usa&#45;1&#45;&gt;jonapot</title>
<path fill="none" stroke="black" d="M337.79,-564.64C360.09,-542.34 384.84,-517.59 407.11,-495.31"/>
<polygon fill="black" stroke="black" points="335.45,-562.03 330.85,-571.58 340.4,-566.98 335.45,-562.03"/>
<polygon fill="black" stroke="black" points="409.53,-497.84 414.13,-488.3 404.58,-492.89 409.53,-497.84"/>
</g>
<!-- k8s&#45;usa&#45;1&#45;&gt;xpand -->
<g id="edge9" class="edge">
<title>k8s&#45;usa&#45;1&#45;&gt;xpand</title>
<path fill="none" stroke="black" stroke-dasharray="5,2" d="M200.97,-564.52C164.64,-528.18 121.83,-485.37 93.8,-457.34"/>
<polygon fill="black" stroke="black" points="198.49,-566.98 208.03,-571.58 203.44,-562.03 198.49,-566.98"/>
<polygon fill="black" stroke="black" points="96.57,-455.16 87.02,-450.56 91.62,-460.11 96.57,-455.16"/>
</g>
</g>
</svg>
